<?xml version="1.0" encoding="iso-8859-1"?>
<!-- Generator: Adobe Illustrator 19.0.0, SVG Export Plug-In . SVG Version: 6.00 Build 0)  -->
<svg version="1.1" id="Capa_1" xmlns="http://www.w3.org/2000/svg" xmlns:xlink="http://www.w3.org/1999/xlink" x="0px" y="0px"
	 viewBox="0 0 511.999 511.999" style="enable-background:new 0 0 511.999 511.999;" xml:space="preserve">
<g>
	<g>
		<g>
			<path d="M259.679,108.122l-6.529-6.528c-2.929-2.928-7.678-2.928-10.606,0c-2.929,2.93-2.929,7.678,0,10.607l6.528,6.528
				c1.464,1.464,3.384,2.196,5.303,2.196c1.919,0,3.839-0.732,5.304-2.196C262.607,115.798,262.607,111.051,259.679,108.122z"/>
			<path d="M78.118,440.757c0.307-3.535,2.15-6.729,5.058-8.762c3.395-2.374,4.222-7.05,1.849-10.444
				c-2.374-3.393-7.05-4.222-10.444-1.849c-6.557,4.585-10.714,11.787-11.406,19.757c-0.691,7.972,2.164,15.781,7.833,21.428
				c4.583,4.563,4.728,11.853,0.331,16.595c-2.816,3.037-2.637,7.783,0.401,10.599c1.443,1.339,3.272,2,5.097,2
				c2.015,0,4.024-0.807,5.502-2.401c9.914-10.694,9.586-27.131-0.746-37.421C79.077,447.755,77.811,444.292,78.118,440.757z"/>
			<path d="M225.631,123.568l-6.841,6.842c-2.929,2.929-2.928,7.678,0.001,10.606c1.465,1.464,3.384,2.196,5.303,2.196
				s3.839-0.732,5.304-2.197l6.841-6.842c2.929-2.929,2.928-7.678,0-10.606C233.308,120.639,228.561,120.638,225.631,123.568z"/>
			<path d="M429.564,170.45c15.789,11.349,20.843,32.158,12.02,49.481c-1.881,3.691-0.412,8.207,3.278,10.087
				c1.091,0.556,2.253,0.819,3.398,0.819c2.73,0,5.364-1.497,6.688-4.098c12.211-23.973,5.217-52.768-16.63-68.471
				c-12.295-8.835-18.413-24.154-15.591-39.029c0.772-4.069-1.9-7.994-5.97-8.767c-4.065-0.77-7.994,1.899-8.767,5.97
				C404.085,137.026,412.552,158.224,429.564,170.45z"/>
			<path d="M38.398,264.367c-3.045-2.808-7.789-2.617-10.598,0.428c-2.809,3.044-2.617,7.789,0.427,10.598
				c14.291,13.184,16.775,34.453,5.909,50.575c-11.709,17.372-12.291,40.193-1.48,58.139c1.408,2.337,3.888,3.631,6.432,3.631
				c1.317,0,2.652-0.347,3.862-1.076c3.548-2.138,4.692-6.746,2.555-10.295c-7.812-12.969-7.392-29.461,1.07-42.016
				C61.611,312.041,58.173,282.609,38.398,264.367z"/>
			<path d="M97.422,202.995c2.566,0,5.067-1.318,6.466-3.689c4.62-7.828,5.801-17.057,3.327-25.987
				c-2.826-10.195-10.26-19.196-20.397-24.694c-7.533-4.086-12.488-10.595-13.595-17.857c-0.886-5.815,0.92-11.378,5.086-15.661
				c2.887-2.971,2.82-7.719-0.149-10.606c-2.969-2.886-7.717-2.818-10.605,0.149c-7.409,7.621-10.747,17.964-9.16,28.379
				c1.821,11.947,9.575,22.438,21.271,28.782c6.578,3.567,11.35,9.223,13.094,15.516c1.397,5.043,0.779,10.008-1.789,14.359
				c-2.105,3.566-0.92,8.165,2.647,10.271C94.814,202.659,96.126,202.995,97.422,202.995z"/>
			<path d="M289.043,329.581c-3.123-2.724-7.86-2.397-10.581,0.726c-3.462,3.971-8.458,6.248-13.708,6.248
				s-10.246-2.277-13.707-6.248c-2.721-3.122-7.46-3.447-10.581-0.727c-3.123,2.722-3.448,7.459-0.726,10.582
				c6.31,7.24,15.426,11.393,25.014,11.393c9.587,0,18.703-4.152,25.014-11.393C292.49,337.04,292.166,332.303,289.043,329.581z"/>
			<path d="M447.792,378.302c-24.246,11.659-36.145,38.798-28.293,64.531c4.419,14.479-0.004,30.372-11.27,40.489
				c-3.081,2.767-3.336,7.51-0.568,10.592c1.481,1.648,3.527,2.488,5.583,2.488c1.784,0,3.576-0.634,5.009-1.92
				c15.588-13.999,21.707-35.991,15.592-56.026c-5.675-18.597,2.925-38.211,20.446-46.636c3.733-1.795,5.305-6.276,3.509-10.009
				C456.005,378.076,451.522,376.506,447.792,378.302z"/>
			<path d="M486.644,265.981c-1.364-3.91-5.64-5.975-9.552-4.61c-7.555,2.636-13.51,8.44-16.336,15.925
				c-2.827,7.484-2.197,15.774,1.728,22.746c3.173,5.636,1.336,12.691-4.182,16.063c-3.534,2.16-4.648,6.776-2.488,10.311
				c1.414,2.313,3.88,3.59,6.406,3.59c1.333,0,2.684-0.355,3.904-1.102c12.442-7.604,16.584-23.514,9.43-36.221
				c-1.741-3.092-2.021-6.769-0.767-10.088s3.895-5.895,7.246-7.063C485.945,274.168,488.009,269.892,486.644,265.981z"/>
			<path d="M422.158,218.95c2.136-3.255,2.329-7.415,0.503-10.855c-1.821-3.432-5.363-5.598-9.241-5.652
				c-4.733-0.068-10.244-1.092-16.849-3.129c-3.957-1.217-8.157,0.999-9.377,4.957c-1.221,3.958,0.999,8.156,4.957,9.377
				c4.692,1.447,9.004,2.472,13.017,3.09c-29.721,35.867-96.923,43.6-147.476,38.959c-47.771-4.386-78.353-18.193-82.874-28.96
				c-1.407-3.35-5.011-5.21-8.559-4.413c-3.546,0.797-6.01,4.021-5.849,7.65c0.451,10.132-5.665,20.739-15.959,27.684
				c-8.719,5.881-18.782,7.932-27.993,5.922c10.227-27.602,29.007-51.538,54.144-68.121c0.415,1.085,0.938,2.139,1.582,3.141
				c3.132,4.874,8.461,7.784,14.255,7.784h122.82c5.794,0,11.122-2.91,14.255-7.784c2.22-3.456,3.076-7.505,2.533-11.448
				c12.14,4.408,23.379,9.254,33.628,13.688l3.475,1.501c0.969,0.418,1.977,0.616,2.968,0.616c2.903,0,5.667-1.695,6.89-4.53
				c1.642-3.804-0.111-8.217-3.914-9.857l-3.463-1.497c-13.921-6.022-29.616-12.784-47.204-18.345l-38.132-83.463
				c3.47-3.147,5.893-7.475,6.575-12.465c0.2-1.461,0.951-2.764,2.117-3.666c8.419-6.527,10.485-18.245,4.806-27.26
				c-0.785-1.246-1.046-2.726-0.734-4.167c2.255-10.411-3.695-20.716-13.841-23.971c-1.403-0.45-2.555-1.417-3.241-2.72
				c-4.967-9.427-16.148-13.497-26.009-9.468c0,0-0.001,0-0.001,0.001c-1.364,0.557-2.866,0.558-4.231-0.001
				c-9.863-4.027-21.043,0.041-26.009,9.467c-0.688,1.305-1.838,2.271-3.243,2.721c-10.144,3.255-16.092,13.561-13.839,23.971
				c0.312,1.441,0.051,2.921-0.735,4.168c-5.679,9.013-3.613,20.73,4.807,27.259c1.165,0.903,1.917,2.204,2.116,3.665
				c0.683,4.998,3.1,9.329,6.571,12.476l-41.454,90.735c-50.166,27.212-81.231,79.222-81.231,136.405
				c0,53.242,26.964,100.301,67.95,128.251c-1.862,2.539-3.62,5.151-5.247,7.828c-2.15,3.54-1.024,8.153,2.517,10.304
				c1.216,0.739,2.56,1.091,3.886,1.091c2.534,0,5.006-1.284,6.418-3.608c1.615-2.659,3.39-5.239,5.273-7.737
				c22.086,12.109,47.42,19.003,74.336,19.003c26.92,0,52.257-6.897,74.347-19.01c9.643,12.779,15.807,27.739,17.91,43.627
				c0.226,1.701-0.545,2.872-1.023,3.419c-0.465,0.53-1.489,1.419-3.132,1.419H159.745c-1.643,0-2.667-0.889-3.132-1.419
				c-0.479-0.547-1.249-1.718-1.024-3.42c0.491-3.711,1.214-7.425,2.15-11.039c1.038-4.01-1.372-8.102-5.381-9.14
				c-4.01-1.035-8.102,1.372-9.14,5.382c-1.087,4.201-1.928,8.517-2.499,12.829c-0.731,5.526,0.95,11.094,4.613,15.273
				c3.638,4.152,8.892,6.533,14.412,6.533h176.203c5.521,0,10.774-2.381,14.413-6.533c3.663-4.18,5.345-9.747,4.613-15.273
				c-2.381-17.986-9.238-34.946-19.943-49.53c40.985-27.95,67.949-75.008,67.949-128.25c0-22.215-4.574-43.548-13.577-63.529
				C403.388,240.851,414.349,230.851,422.158,218.95z M214.595,49.869c2.892-4.589,3.853-10.037,2.705-15.338
				c-0.613-2.83,1.004-5.63,3.76-6.515c5.166-1.656,9.403-5.212,11.932-10.012c1.35-2.56,4.388-3.67,7.067-2.572
				c5.022,2.051,10.555,2.051,15.576,0c2.681-1.096,5.718,0.011,7.069,2.573c2.529,4.8,6.767,8.354,11.931,10.011
				c2.757,0.885,4.374,3.685,3.762,6.515c-1.148,5.302-0.188,10.75,2.704,15.338c1.544,2.449,0.981,5.635-1.306,7.408
				c-4.287,3.323-7.053,8.113-7.788,13.49c-0.393,2.868-2.889,4.93-5.761,4.834c-5.419-0.222-10.619,1.681-14.638,5.326
				c-2.144,1.945-5.376,1.945-7.521,0c-3.816-3.462-8.696-5.342-13.822-5.342c-0.271,0-0.543,0.005-0.814,0.016
				c-2.896,0.094-5.37-1.968-5.762-4.835c-0.734-5.375-3.501-10.166-7.787-13.488C213.613,55.502,213.051,52.318,214.595,49.869z
				 M184.668,188.629l8.667-18.971h60.844c4.143,0,7.5-3.357,7.5-7.5s-3.357-7.5-7.5-7.5h-53.991l29.274-64.076
				c0.19-0.002,0.377,0.012,0.568,0.005c1.484-0.067,2.885,0.458,3.976,1.447c3.946,3.58,8.893,5.369,13.841,5.369
				c4.947,0,9.895-1.79,13.839-5.369c1.091-0.989,2.498-1.513,3.978-1.447c0.191,0.008,0.378-0.007,0.567-0.004l29.274,64.075
				h-5.187c-4.143,0-7.5,3.357-7.5,7.5s3.357,7.5,7.5,7.5h12.04l8.668,18.971c0.365,0.799,0.13,1.452-0.133,1.859
				c-0.262,0.408-0.758,0.893-1.635,0.893H186.437c-0.877,0-1.374-0.485-1.636-0.893
				C184.539,190.081,184.304,189.428,184.668,188.629z M247.846,452.545c-77.269,0-140.133-62.863-140.133-140.133
				c0-11.809,1.479-23.37,4.282-34.48c3.757,0.933,7.605,1.411,11.478,1.411c10.07,0,20.285-3.128,29.364-9.252
				c9.21-6.213,16.049-14.729,19.671-24.014c18.782,13.948,54.236,21.84,83.81,24.554c32.938,3.024,66.2,0.801,93.658-6.259
				c9.411-2.419,18.08-5.35,25.999-8.78c7.962,17.878,12.004,36.956,12.004,56.819C387.98,389.682,325.117,452.545,247.846,452.545z
				"/>
			<path d="M265.266,148.426c2.739,0,5.378-1.506,6.698-4.117l4.366-8.634c1.87-3.696,0.389-8.208-3.308-10.077
				c-3.694-1.869-8.208-0.39-10.077,3.308l-4.366,8.634c-1.87,3.696-0.389,8.208,3.308,10.077
				C262.972,148.165,264.128,148.426,265.266,148.426z"/>
			<path d="M191.321,315.005c-4.142,0-7.5,3.357-7.5,7.5v12.19c0,4.143,3.358,7.5,7.5,7.5c4.142,0,7.5-3.357,7.5-7.5v-12.19
				C198.821,318.363,195.463,315.005,191.321,315.005z"/>
			<path d="M338.188,315.005c-4.143,0-7.5,3.357-7.5,7.5v12.19c0,4.143,3.357,7.5,7.5,7.5c4.142,0,7.5-3.357,7.5-7.5v-12.19
				C345.688,318.363,342.331,315.005,338.188,315.005z"/>
		</g>
	</g>
</g>
<g>
</g>
<g>
</g>
<g>
</g>
<g>
</g>
<g>
</g>
<g>
</g>
<g>
</g>
<g>
</g>
<g>
</g>
<g>
</g>
<g>
</g>
<g>
</g>
<g>
</g>
<g>
</g>
<g>
</g>
</svg>
